<svg width="20" height="20" viewBox="0 0 20 20" fill="none" xmlns="http://www.w3.org/2000/svg">
<path d="M10 0.0390625C4.49875 0.0390625 0.0390625 4.49875 0.0390625 10C0.0390625 15.5013 4.49875 19.9609 10 19.9609C15.5013 19.9609 19.9609 15.5013 19.9609 10C19.9609 4.49875 15.5013 0.0390625 10 0.0390625ZM14.7405 5.83656L12.0142 11.7991C11.9706 11.8942 11.8942 11.9706 11.7991 12.0142L5.83656 14.7405C5.46953 14.9083 5.09172 14.53 5.25906 14.163L7.98531 8.20047C8.02891 8.10531 8.10531 8.02891 8.20047 7.98531L14.163 5.25906C14.53 5.09172 14.9083 5.47 14.7405 5.83656Z" fill="#8064A2"/>
</svg>
