<svg width="32" height="32" viewBox="0 0 32 32" fill="none" xmlns="http://www.w3.org/2000/svg">
<path d="M29.2267 9.66654V9.83987L27.28 17.0399C27.0499 17.8944 26.5429 18.6486 25.8384 19.1842C25.1339 19.7198 24.2717 20.0067 23.3867 19.9999H13.1867C12.1853 20.0039 11.2189 19.6323 10.4783 18.9583C9.73768 18.2844 9.27679 17.3572 9.18668 16.3599L8.32001 6.54654C8.28997 6.21411 8.13634 5.90504 7.88947 5.68039C7.64261 5.45574 7.32046 5.33185 6.98668 5.3332H4.09334C3.73972 5.3332 3.40058 5.19273 3.15053 4.94268C2.90049 4.69263 2.76001 4.35349 2.76001 3.99987C2.76001 3.64625 2.90049 3.30711 3.15053 3.05706C3.40058 2.80701 3.73972 2.66654 4.09334 2.66654H6.98668C7.98802 2.66247 8.95447 3.03413 9.69507 3.70808C10.4357 4.38203 10.8966 5.30925 10.9867 6.30654V6.66654H26.5733C26.9534 6.66355 27.3298 6.74186 27.6771 6.89621C28.0245 7.05056 28.3348 7.27739 28.5874 7.56148C28.8399 7.84558 29.0288 8.18038 29.1413 8.54343C29.2539 8.90649 29.2875 9.28941 29.24 9.66654H29.2267Z" fill="white"/>
<path d="M12.0933 29.3334C13.9343 29.3334 15.4267 27.841 15.4267 26.0001C15.4267 24.1591 13.9343 22.6667 12.0933 22.6667C10.2524 22.6667 8.76001 24.1591 8.76001 26.0001C8.76001 27.841 10.2524 29.3334 12.0933 29.3334Z" fill="white"/>
<path d="M22.7601 29.3334C24.601 29.3334 26.0934 27.841 26.0934 26.0001C26.0934 24.1591 24.601 22.6667 22.7601 22.6667C20.9191 22.6667 19.4267 24.1591 19.4267 26.0001C19.4267 27.841 20.9191 29.3334 22.7601 29.3334Z" fill="white"/>
</svg>
