<svg width="32" height="32" viewBox="0 0 32 32" fill="none" xmlns="http://www.w3.org/2000/svg">
<g clip-path="url(#clip0_1_321)">
<rect x="6.39999" y="10.4" width="19.2" height="15.2" fill="white"/>
<path d="M21.3333 14.0399C20.9467 13.6533 20.3067 13.6533 19.92 14.0399L14.12 19.8399L12 17.7199C11.6133 17.3333 10.9733 17.3333 10.5867 17.7199C10.2 18.1066 10.2 18.7466 10.5867 19.1333L13.1733 21.7199C13.6933 22.2399 14.5333 22.2399 15.0533 21.7199L21.32 15.4533C21.72 15.0666 21.72 14.4266 21.3333 14.0399ZM25.3333 3.99992H24V2.66659C24 1.93325 23.4 1.33325 22.6667 1.33325C21.9333 1.33325 21.3333 1.93325 21.3333 2.66659V3.99992H10.6667V2.66659C10.6667 1.93325 10.0667 1.33325 9.33333 1.33325C8.6 1.33325 8 1.93325 8 2.66659V3.99992H6.66667C5.18667 3.99992 4.01333 5.19992 4.01333 6.66659L4 25.3333C4 26.7999 5.18667 27.9999 6.66667 27.9999H25.3333C26.8 27.9999 28 26.7999 28 25.3333V6.66659C28 5.19992 26.8 3.99992 25.3333 3.99992ZM24 25.3333H8C7.26667 25.3333 6.66667 24.7333 6.66667 23.9999V10.6666H25.3333V23.9999C25.3333 24.7333 24.7333 25.3333 24 25.3333Z" fill="white"/>
<path d="M21.4367 13.89C21.05 13.5033 20.41 13.5033 20.0233 13.89L14.2233 19.69L12.1033 17.57C11.7167 17.1833 11.0767 17.1833 10.69 17.57C10.3033 17.9566 10.3033 18.5966 10.69 18.9833L13.2767 21.57C13.7967 22.09 14.6367 22.09 15.1567 21.57L21.4233 15.3033C21.8233 14.9166 21.8233 14.2766 21.4367 13.89Z" fill="#0096C8"/>
</g>
<defs>
<clipPath id="clip0_1_321">
<rect width="32" height="32" fill="white"/>
</clipPath>
</defs>
</svg>
