<svg width="28" height="28" viewBox="0 0 28 28" fill="none" xmlns="http://www.w3.org/2000/svg">
<path d="M14 0.666626C6.64002 0.666626 0.666687 6.63996 0.666687 14C0.666687 21.36 6.64002 27.3333 14 27.3333C21.36 27.3333 27.3334 21.36 27.3334 14C27.3334 6.63996 21.36 0.666626 14 0.666626ZM19.3334 15.3333H15.3334V19.3333C15.3334 20.0666 14.7334 20.6666 14 20.6666C13.2667 20.6666 12.6667 20.0666 12.6667 19.3333V15.3333H8.66669C7.93335 15.3333 7.33335 14.7333 7.33335 14C7.33335 13.2666 7.93335 12.6666 8.66669 12.6666H12.6667V8.66663C12.6667 7.93329 13.2667 7.33329 14 7.33329C14.7334 7.33329 15.3334 7.93329 15.3334 8.66663V12.6666H19.3334C20.0667 12.6666 20.6667 13.2666 20.6667 14C20.6667 14.7333 20.0667 15.3333 19.3334 15.3333Z" fill="#0096C8"/>
</svg>
