<svg width="30" height="26" viewBox="0 0 30 26" fill="none" xmlns="http://www.w3.org/2000/svg">
<path d="M21.9466 9.99978L16.1066 1.25312C15.8533 0.879782 15.4266 0.693115 15 0.693115C14.5733 0.693115 14.1466 0.879782 13.8933 1.26645L8.05331 9.99978H1.66665C0.933313 9.99978 0.333313 10.5998 0.333313 11.3331C0.333313 11.4531 0.346646 11.5731 0.386646 11.6931L3.77331 24.0531C4.07998 25.1731 5.10665 25.9998 6.33331 25.9998H23.6666C24.8933 25.9998 25.92 25.1731 26.24 24.0531L29.6266 11.6931L29.6666 11.3331C29.6666 10.5998 29.0666 9.99978 28.3333 9.99978H21.9466ZM11 9.99978L15 4.13311L19 9.99978H11ZM15 20.6664C13.5333 20.6664 12.3333 19.4664 12.3333 17.9998C12.3333 16.5331 13.5333 15.3331 15 15.3331C16.4666 15.3331 17.6666 16.5331 17.6666 17.9998C17.6666 19.4664 16.4666 20.6664 15 20.6664Z" fill="#C0504D"/>
</svg>
