<svg width="24" height="27" viewBox="0 0 24 27" fill="none" xmlns="http://www.w3.org/2000/svg">
<path d="M17.3333 13.0399C16.9467 12.6532 16.3067 12.6532 15.92 13.0399L10.12 18.8399L8 16.7199C7.61333 16.3332 6.97333 16.3332 6.58667 16.7199C6.2 17.1065 6.2 17.7465 6.58667 18.1332L9.17333 20.7199C9.69333 21.2399 10.5333 21.2399 11.0533 20.7199L17.32 14.4532C17.72 14.0665 17.72 13.4265 17.3333 13.0399ZM21.3333 2.99986H20V1.66652C20 0.933191 19.4 0.333191 18.6667 0.333191C17.9333 0.333191 17.3333 0.933191 17.3333 1.66652V2.99986H6.66667V1.66652C6.66667 0.933191 6.06667 0.333191 5.33333 0.333191C4.6 0.333191 4 0.933191 4 1.66652V2.99986H2.66667C1.18667 2.99986 0.0133333 4.19986 0.0133333 5.66652L0 24.3332C0 25.7999 1.18667 26.9999 2.66667 26.9999H21.3333C22.8 26.9999 24 25.7999 24 24.3332V5.66652C24 4.19986 22.8 2.99986 21.3333 2.99986ZM20 24.3332H4C3.26667 24.3332 2.66667 23.7332 2.66667 22.9999V9.66652H21.3333V22.9999C21.3333 23.7332 20.7333 24.3332 20 24.3332Z" fill="#0096C8"/>
</svg>
