<svg width="27" height="27" viewBox="0 0 27 27" fill="none" xmlns="http://www.w3.org/2000/svg">
<path d="M13.468 26.8C20.8191 26.8 26.8 20.8191 26.8 13.468C26.8 11.2847 26.2249 9.24393 25.2923 7.42438L24.1336 5.46755L22.1338 3.46775L19.5051 1.64111C17.6871 0.710479 15.6493 0.136046 13.468 0.136046C6.11692 0.136046 0.135988 6.11698 0.135987 13.468C0.135987 20.8191 6.11692 26.8 13.468 26.8ZM17.4676 18.1329C15.9951 18.1329 14.8012 16.9391 14.8012 15.4665C14.8012 15.4092 14.8148 15.3553 14.8181 15.2986C14.8088 15.2446 14.8012 15.1893 14.8012 15.1319C14.8012 14.9486 14.8363 10.6069 17.8673 8.33314C18.0473 8.19849 18.2575 8.13264 18.4662 8.13264C18.7702 8.13264 19.0702 8.27167 19.2669 8.53364C19.5982 8.9756 19.509 9.60195 19.0677 9.93324C18.0625 10.6872 17.5055 11.8143 17.1942 12.8275C17.2855 12.8182 17.3736 12.8001 17.4676 12.8001C18.9401 12.8001 20.134 13.994 20.134 15.4665C20.134 16.9391 18.9401 18.1329 17.4676 18.1329ZM9.46839 18.1329C7.99587 18.1329 6.80199 16.9391 6.80199 15.4665C6.80199 15.4092 6.81558 15.3553 6.81891 15.2986C6.80958 15.2446 6.80199 15.1893 6.80199 15.1319C6.80199 14.9486 6.83706 10.6069 9.86809 8.33314C10.0481 8.19849 10.2583 8.13264 10.467 8.13264C10.771 8.13264 11.071 8.27167 11.2677 8.53364C11.599 8.9756 11.5098 9.60194 11.0685 9.93324C10.0633 10.6872 9.50628 11.8143 9.19498 12.8275C9.2863 12.8182 9.3744 12.8001 9.46839 12.8001C10.9409 12.8001 12.1348 13.994 12.1348 15.4665C12.1348 16.9391 10.9409 18.1329 9.46839 18.1329Z" fill="#8064A2"/>
</svg>
